PathFileType	4	(X/Y/Z)	D:\TRACE\v60_Jaco2_6-2-23\BothDRS_Motion3_4-v60.trc
DataRate	CameraRate	NumFrames	NumMarkers	Units	OrigDataRate	OrigDataStartFrame	OrigNumFrames
100.00	100.00	      24	9	mm	100.00	1751	      7000
Frame#	Time	front left toe			Front right toe			aft left toe			aft right toe			Arm			FL body			FR body			AL Body			AR Body			
		X1	Y1	Z1	X2	Y2	Z2	X3	Y3	Z3	X4	Y4	Z4	X5	Y5	Z5	X6	Y6	Z6	X7	Y7	Z7	X8	Y8	Z8	X9	Y9	Z9	

1751	17.500	-194.53683	74.10434	-198.33110	192.21413	13.32243	-218.03011	-161.30470	15.67455	416.76532	195.56270	74.87213	413.82513	50.58807	1120.61682	-605.50305	-84.36443	508.68539	-376.76010	74.38842	504.32477	-381.03027	-50.80148	569.46423	565.39380	100.26819	556.11877	561.24176	
1752	17.510	-194.32237	64.72471	-197.59267	192.09087	13.29218	-218.01758	-161.43666	15.65138	416.77899	195.06865	66.74307	414.72440	51.42810	1120.79224	-605.08319	-84.42039	508.51425	-376.53174	73.53990	504.39691	-380.55154	-51.54882	569.64905	565.57837	98.99734	556.42126	562.11218	
1753	17.520	-192.77058	53.51638	-194.53412	191.81133	13.18614	-218.09569	-161.53160	15.57858	416.80640	194.32481	58.36803	414.95914	51.86878	1120.71509	-604.83728	-84.54476	508.39255	-376.43729	74.12711	504.16388	-380.47043	-52.69557	569.76831	565.78497	98.63371	556.43719	562.27277	
1754	17.530	-194.59825	45.85300	-195.53612	191.56311	13.12850	-218.12566	-161.62202	15.50922	416.80011	193.98154	50.19833	415.27121	52.36023	1120.56873	-604.58044	-84.65568	508.31134	-376.42834	74.08833	504.03262	-380.28726	-53.35650	569.64191	565.73737	97.71216	556.45355	562.50220	
1755	17.540	-195.24344	37.87922	-194.89325	190.55075	12.89935	-218.32315	-161.82529	15.55974	416.71588	193.55637	43.08960	415.30463	52.50482	1120.48547	-604.60596	-84.85359	508.29584	-376.48007	74.00869	503.97787	-380.16852	-54.37725	569.53241	565.80188	96.85805	556.28412	562.61652	
1756	17.550	-196.11221	31.07447	-194.88716	190.31281	12.81999	-218.37733	-162.06241	15.63721	416.65875	192.60075	38.27464	414.96912	52.64681	1120.34033	-604.65405	-85.11840	508.38150	-376.48355	73.93956	503.94760	-380.07489	-55.16225	569.46191	565.75134	96.25381	556.12256	562.77423	
1757	17.560	-196.91928	24.27444	-195.04265	190.13435	12.76249	-218.38081	-162.27200	15.67081	416.64642	190.93929	32.78883	414.73892	52.55209	1120.17603	-604.72498	-85.26840	508.36517	-376.55069	73.96122	503.85968	-380.01657	-55.98136	569.47211	565.74792	95.24191	556.08685	562.88959	
1758	17.570	-198.01421	18.70400	-195.67737	189.99881	12.69235	-218.28757	-162.35690	15.67482	416.59729	190.31258	27.65576	414.60461	52.36229	1119.93225	-604.74902	-85.36166	508.27240	-376.64017	73.79743	503.76364	-380.03952	-56.74698	569.53149	565.58771	94.26418	555.92230	562.34222	
1759	17.580	-198.51872	15.64264	-197.12233	189.73608	12.57267	-218.28558	-162.31918	15.46335	416.43903	189.85593	22.04008	414.57333	52.10119	1119.91089	-604.88989	-85.56072	508.05994	-376.74866	73.49829	503.50598	-379.98553	-57.84629	569.83160	565.59235	93.49690	556.31439	562.91150	
1760	17.590	-199.86023	16.07348	-198.38705	189.43497	12.47450	-218.32968	-162.44359	15.46312	416.28662	189.25864	18.62836	412.89404	51.97611	1119.84619	-605.16339	-85.53107	508.36624	-376.74738	73.32990	503.70767	-379.93985	-58.51362	569.95111	565.54895	92.74211	556.39093	563.01898	
1761	17.600	-200.39955	13.76655	-197.59608	189.11867	12.43711	-218.48351	-162.45973	15.69369	416.05392	189.90839	17.15689	413.62924	51.97789	1119.82996	-605.47424	-85.61110	508.90060	-376.69305	72.92486	504.34247	-379.92435	-59.40762	570.84253	565.50684	91.99075	556.93536	563.15857	
1762	17.610	-200.17117	14.59549	-197.39151	188.77107	12.41148	-218.68138	-162.57904	16.03166	415.96252	190.30688	18.17527	412.48538	52.57091	1119.97925	-605.81653	-85.93275	509.26578	-376.73047	72.77247	504.71045	-379.57880	-60.53235	572.24872	565.50342	91.06462	558.89526	563.29248	
1763	17.620	-200.23059	14.54911	-197.53595	190.60080	15.66478	-217.20694	-162.64247	18.52719	416.03369	189.69847	17.98232	414.00903	53.42289	1120.48279	-606.06750	-86.08596	509.39478	-376.63852	72.65007	504.67999	-379.32736	-61.36711	573.59760	565.59882	89.95196	560.53888	563.41669	
1764	17.630	-200.59102	12.50273	-197.61980	187.34819	17.53532	-214.45259	-160.56314	20.87958	418.24283	189.35806	17.13393	413.68921	54.25470	1120.86646	-606.46790	-86.08723	509.84192	-376.62198	72.72464	505.20593	-379.18246	-62.30844	574.53455	565.57385	89.31055	561.32251	563.45612	
1765	17.640	-200.83498	12.66383	-197.59454	184.11139	20.67203	-210.89261	-159.24077	26.32737	420.66873	189.14137	18.02065	413.27228	54.40589	1121.00867	-606.79639	-85.99333	509.94873	-376.57864	72.89788	505.42725	-378.88397	-63.33317	575.09613	565.69696	88.48966	562.02753	563.65350	
1766	17.650	-201.08827	13.04583	-197.67711	181.63133	29.01097	-209.75934	-157.11353	34.38068	420.92453	189.13165	18.00620	413.70328	54.31731	1120.76367	-606.98547	-85.95933	510.05292	-376.60425	72.85211	505.72787	-378.87390	-64.00543	575.30200	565.71191	87.84860	562.36542	563.66058	
1767	17.660	-201.09622	12.48984	-197.78616	178.80070	37.37549	-209.81973	-156.63638	44.69497	419.92825	188.83784	18.21881	413.35016	53.44827	1120.46765	-606.96710	-86.01033	509.96957	-376.59833	72.77455	505.71735	-378.77655	-64.34550	575.42365	565.76184	87.15061	562.58978	563.74634	
1768	17.670	-201.43034	11.80331	-197.53259	180.87134	48.62684	-210.80942	-156.10022	54.59657	419.50745	188.69498	18.34539	413.61493	52.75463	1120.39453	-606.99243	-86.25601	509.81381	-376.60861	72.73831	505.27789	-378.74094	-64.36749	575.32813	565.84045	87.09998	562.57031	563.79279	
1769	17.680	-201.64235	11.84997	-197.48096	181.03616	58.92321	-211.82469	-158.30965	65.95254	417.81418	188.73221	18.15217	413.43304	52.04514	1120.15576	-606.93365	-86.43372	509.57690	-376.58521	72.38831	504.93906	-378.77740	-64.46279	574.92981	565.84973	87.17797	562.12018	563.89618	
1770	17.690	-201.95534	11.63897	-197.73151	183.54689	70.41583	-212.24689	-161.35062	77.27842	416.56082	188.64432	18.11041	413.26575	51.61501	1119.93225	-606.74615	-86.72227	509.16092	-376.42224	72.22779	504.77353	-378.89957	-63.88011	574.36401	565.97662	87.29243	561.13226	563.86475	
1771	17.700	-202.22542	11.49301	-197.76274	185.11754	81.24859	-213.02370	-163.64511	88.47911	415.82669	188.50882	18.07983	413.19220	50.82145	1119.75317	-606.31848	-87.13040	508.99722	-376.45670	71.68051	504.59085	-379.03354	-63.71946	573.59619	566.07770	86.88678	560.61481	563.80811	
1772	17.710	-202.40581	11.40023	-197.78239	185.94055	92.26199	-213.48502	-165.55927	99.62830	415.56134	188.52866	18.27290	413.03500	50.24335	1119.64661	-606.01160	-87.33586	508.69873	-376.33020	71.42062	504.44855	-379.11438	-63.45204	572.84753	566.07837	88.19728	559.88293	563.76581	
1773	17.720	-202.56308	11.28096	-197.82442	187.09058	102.56192	-213.52603	-166.27705	110.08047	415.22134	188.35596	18.24100	412.97873	49.89007	1119.69104	-605.81531	-87.59077	508.52734	-376.23611	71.17409	504.33118	-379.06116	-63.06516	572.39941	566.20392	88.74288	559.48639	563.65979	
1774	17.730	-202.82483	11.13480	-197.97409	187.77559	112.20071	-213.88628	-166.10645	119.81077	415.16510	188.27945	18.26683	412.93286	49.41188	1119.77466	-605.57990	-87.77293	508.27783	-376.10016	71.08407	504.25668	-379.07190	-62.37716	571.94025	566.21301	88.93073	559.36420	563.66095	
